<svg width="24" height="24" viewBox="0 0 24 24" fill="none" xmlns="http://www.w3.org/2000/svg">
<path d="M13.4419 10.5581L13 10.1161L12.1161 11L12.5581 11.4419L13.4419 10.5581ZM18 16L18.4419 16.4419L18.4419 15.5581L18 16ZM12.5581 20.5581L12.1161 21L13 21.8839L13.4419 21.4419L12.5581 20.5581ZM7.21777 14.9082L6.66089 15.1919L7.21777 14.9082ZM8.09241 15.782L8.37616 15.2251L8.37615 15.2251L8.09241 15.782ZM7.625 2.9998L7.625 2.3748L6.375 2.3748L6.375 2.9998L7.625 2.9998ZM12.5581 11.4419L17.5581 16.4419L18.4419 15.5581L13.4419 10.5581L12.5581 11.4419ZM17.5581 15.5581L12.5581 20.5581L13.4419 21.4419L18.4419 16.4419L17.5581 15.5581ZM10.2 16.625L18 16.625L18 15.375L10.2 15.375L10.2 16.625ZM6.375 12.8031C6.375 13.3517 6.37451 13.801 6.4043 14.1655C6.43468 14.5372 6.49963 14.8754 6.66089 15.1919L7.77465 14.6245C7.71815 14.5136 7.67421 14.3582 7.65015 14.0637C7.62549 13.7619 7.625 13.3724 7.625 12.8031L6.375 12.8031ZM10.2 15.375C9.62963 15.375 9.23955 15.3745 8.93751 15.3498C8.6428 15.3257 8.48731 15.2818 8.37616 15.2251L7.80867 16.3389C8.12534 16.5002 8.46359 16.5653 8.83569 16.5957C9.20046 16.6255 9.65027 16.625 10.2 16.625L10.2 15.375ZM6.66089 15.1919C6.91284 15.6864 7.31529 16.0875 7.80867 16.3389L8.37615 15.2251C8.11688 15.093 7.9062 14.8826 7.77465 14.6245L6.66089 15.1919ZM6.375 2.9998L6.375 12.8031L7.625 12.8031L7.625 2.9998L6.375 2.9998Z" fill="#FAFAFA"/>
</svg>
