<svg width="24" height="24" viewBox="0 0 24 24" fill="none" xmlns="http://www.w3.org/2000/svg">
<path d="M10.5581 10.5581L11 10.1161L11.8839 11L11.4419 11.4419L10.5581 10.5581ZM6 16L5.55806 16.4419L5.55806 15.5581L6 16ZM11.4419 20.5581L11.8839 21L11 21.8839L10.5581 21.4419L11.4419 20.5581ZM16.7822 14.9082L17.3391 15.1919L16.7822 14.9082ZM15.9076 15.782L15.6238 15.2251L15.6238 15.2251L15.9076 15.782ZM16.375 2.9998L16.375 2.3748L17.625 2.3748L17.625 2.9998L16.375 2.9998ZM11.4419 11.4419L6.44194 16.4419L5.55806 15.5581L10.5581 10.5581L11.4419 11.4419ZM6.44194 15.5581L11.4419 20.5581L10.5581 21.4419L5.55806 16.4419L6.44194 15.5581ZM13.8 16.625L6 16.625L6 15.375L13.8 15.375L13.8 16.625ZM17.625 12.8031C17.625 13.3517 17.6255 13.801 17.5957 14.1655C17.5653 14.5372 17.5004 14.8754 17.3391 15.1919L16.2253 14.6245C16.2819 14.5136 16.3258 14.3582 16.3499 14.0637C16.3745 13.7619 16.375 13.3724 16.375 12.8031L17.625 12.8031ZM13.8 15.375C14.3704 15.375 14.7604 15.3745 15.0625 15.3498C15.3572 15.3257 15.5127 15.2818 15.6238 15.2251L16.1913 16.3389C15.8747 16.5002 15.5364 16.5653 15.1643 16.5957C14.7995 16.6255 14.3497 16.625 13.8 16.625L13.8 15.375ZM17.3391 15.1919C17.0872 15.6864 16.6847 16.0875 16.1913 16.3389L15.6238 15.2251C15.8831 15.093 16.0938 14.8826 16.2253 14.6245L17.3391 15.1919ZM17.625 2.9998L17.625 12.8031L16.375 12.8031L16.375 2.9998L17.625 2.9998Z" fill="#FAFAFA"/>
</svg>
